<?xml version="1.0" encoding="UTF-8" standalone="no"?><!-- Generator: Gravit.io --><svg xmlns="http://www.w3.org/2000/svg" xmlns:xlink="http://www.w3.org/1999/xlink" style="isolation:isolate" viewBox="587.386 2608 296.133 219.372" width="296.133pt" height="219.372pt"><defs><clipPath id="_clipPath_vbalF5WLZqpSq56Y6IKlxsmvzXFyZmxq"><rect x="587.386" y="2608" width="296.133" height="219.372"/></clipPath></defs><g clip-path="url(#_clipPath_vbalF5WLZqpSq56Y6IKlxsmvzXFyZmxq)"><g><linearGradient id="_lgradient_4" x1="0" y1="0.5" x2="1" y2="0.5" gradientTransform="matrix(-136.614,0,0,174.141,725,2652.46)" gradientUnits="userSpaceOnUse"><stop offset="0%" stop-opacity="1" style="stop-color:rgb(74,134,232)"/><stop offset="87.91666666666667%" stop-opacity="1" style="stop-color:rgb(9,37,81)"/></linearGradient><path d=" M 688.904 2824.531 C 677.664 2819.891 611.777 2776.336 603.904 2769.46 C 596.03 2762.585 590.073 2751.101 588.904 2740.531 C 587.734 2729.962 588.91 2706.131 588.904 2696.531 C 588.897 2686.931 593.21 2680.159 597.904 2672.46 Q 602.598 2664.762 624.904 2652.46 Q 614.671 2665.945 614.904 2675.531 C 615.079 2682.772 618.383 2692.047 625.904 2698.531 C 631.926 2703.723 711.913 2754.299 717.904 2758.531 Q 723.895 2762.763 724.904 2775.531 Q 725.096 2798.965 724.904 2805.531 C 724.647 2814.284 714.553 2822.328 711.904 2823.531 C 709.255 2824.734 700.144 2829.171 688.904 2824.531 Z " fill="url(#_lgradient_4)"/><linearGradient id="_lgradient_5" x1="0" y1="0.5" x2="1" y2="0.5" gradientTransform="matrix(-136.614,0,0,-174.46,724,2782.46)" gradientUnits="userSpaceOnUse"><stop offset="72.91666666666666%" stop-opacity="1" style="stop-color:rgb(74,134,232)"/><stop offset="97.5%" stop-opacity="1" style="stop-color:rgb(114,166,251)"/></linearGradient><path d=" M 687.904 2610.531 C 677.605 2615.967 609.257 2659.721 602.904 2665.531 C 596.551 2671.341 589.073 2680.962 587.904 2691.531 C 586.734 2702.101 587.91 2725.931 587.904 2735.531 C 587.897 2745.131 591.334 2752.758 595.904 2760.531 Q 601.154 2769.46 621.904 2782.46 Q 613.671 2766.117 613.904 2756.531 C 614.079 2749.291 617.383 2740.015 624.904 2733.531 C 630.926 2728.339 710.913 2677.763 716.904 2673.531 Q 722.894 2669.299 723.904 2659.531 Q 724.096 2636.097 723.904 2629.531 C 723.647 2620.778 713.553 2612.734 710.904 2611.531 C 708.255 2610.328 698.657 2604.855 687.904 2610.531 Z " fill="url(#_lgradient_5)"/></g><g><linearGradient id="_lgradient_6" x1="0" y1="0.5" x2="1" y2="0.5" gradientTransform="matrix(136.614,0,0,-174.141,745.904,2782.911)" gradientUnits="userSpaceOnUse"><stop offset="0%" stop-opacity="1" style="stop-color:rgb(74,134,232)"/><stop offset="87.91666666666667%" stop-opacity="1" style="stop-color:rgb(9,37,81)"/></linearGradient><path d=" M 782 2610.84 C 793.24 2615.48 859.126 2659.035 867 2665.911 C 874.874 2672.787 880.831 2684.271 882 2694.84 C 883.169 2705.41 881.993 2729.24 882 2738.84 C 882.007 2748.44 877.694 2755.212 873 2762.911 Q 868.306 2770.61 846 2782.911 Q 856.233 2769.426 856 2759.84 C 855.824 2752.6 852.521 2743.324 845 2736.84 C 838.977 2731.648 758.991 2681.073 753 2676.84 Q 747.009 2672.608 746 2659.84 Q 745.807 2636.406 746 2629.84 C 746.257 2621.087 756.351 2613.044 759 2611.84 C 761.649 2610.637 770.76 2606.2 782 2610.84 Z " fill="url(#_lgradient_6)"/><linearGradient id="_lgradient_7" x1="0" y1="0.5" x2="1" y2="0.5" gradientTransform="matrix(136.614,0,0,174.46,746.904,2652.911)" gradientUnits="userSpaceOnUse"><stop offset="72.91666666666666%" stop-opacity="1" style="stop-color:rgb(74,134,232)"/><stop offset="97.5%" stop-opacity="1" style="stop-color:rgb(114,166,251)"/></linearGradient><path d=" M 783 2824.84 C 793.299 2819.404 861.647 2775.65 868 2769.84 C 874.353 2764.031 881.831 2754.41 883 2743.84 C 884.169 2733.271 882.993 2709.44 883 2699.84 C 883.007 2690.24 879.57 2682.613 875 2674.84 Q 869.75 2665.911 849 2652.911 Q 857.233 2669.255 857 2678.84 C 856.824 2686.081 853.521 2695.357 846 2701.84 C 839.977 2707.032 759.991 2757.608 754 2761.84 Q 748.009 2766.073 747 2775.84 Q 746.807 2799.274 747 2805.84 C 747.257 2814.594 757.351 2822.637 760 2823.84 C 762.649 2825.044 772.246 2830.517 783 2824.84 Z " fill="url(#_lgradient_7)"/></g></g></svg>