<?xml version="1.0" encoding="UTF-8" standalone="no"?><!-- Generator: Gravit.io --><svg xmlns="http://www.w3.org/2000/svg" xmlns:xlink="http://www.w3.org/1999/xlink" style="isolation:isolate" viewBox="587.386 2608 1184.75 219.372" width="1184.75pt" height="219.372pt"><defs><clipPath id="_clipPath_avSza9ziqdolSMHx1vhP8Th8yLymIy2G"><rect x="587.386" y="2608" width="1184.75" height="219.372"/></clipPath></defs><g clip-path="url(#_clipPath_avSza9ziqdolSMHx1vhP8Th8yLymIy2G)"><g><linearGradient id="_lgradient_0" x1="0" y1="0.5" x2="1" y2="0.5" gradientTransform="matrix(-136.614,0,0,174.141,725,2652.46)" gradientUnits="userSpaceOnUse"><stop offset="0%" stop-opacity="1" style="stop-color:rgb(74,134,232)"/><stop offset="87.91666666666667%" stop-opacity="1" style="stop-color:rgb(9,37,81)"/></linearGradient><path d=" M 688.904 2824.531 C 677.664 2819.891 611.777 2776.336 603.904 2769.46 C 596.03 2762.585 590.073 2751.101 588.904 2740.531 C 587.734 2729.962 588.91 2706.131 588.904 2696.531 C 588.897 2686.931 593.21 2680.159 597.904 2672.46 Q 602.598 2664.762 624.904 2652.46 Q 614.671 2665.945 614.904 2675.531 C 615.079 2682.772 618.383 2692.047 625.904 2698.531 C 631.926 2703.723 711.913 2754.299 717.904 2758.531 Q 723.895 2762.763 724.904 2775.531 Q 725.096 2798.965 724.904 2805.531 C 724.647 2814.284 714.553 2822.328 711.904 2823.531 C 709.255 2824.734 700.144 2829.171 688.904 2824.531 Z " fill="url(#_lgradient_0)"/><linearGradient id="_lgradient_1" x1="0" y1="0.5" x2="1" y2="0.5" gradientTransform="matrix(-136.614,0,0,-174.46,724,2782.46)" gradientUnits="userSpaceOnUse"><stop offset="72.91666666666666%" stop-opacity="1" style="stop-color:rgb(74,134,232)"/><stop offset="97.5%" stop-opacity="1" style="stop-color:rgb(114,166,251)"/></linearGradient><path d=" M 687.904 2610.531 C 677.605 2615.967 609.257 2659.721 602.904 2665.531 C 596.551 2671.341 589.073 2680.962 587.904 2691.531 C 586.734 2702.101 587.91 2725.931 587.904 2735.531 C 587.897 2745.131 591.334 2752.758 595.904 2760.531 Q 601.154 2769.46 621.904 2782.46 Q 613.671 2766.117 613.904 2756.531 C 614.079 2749.291 617.383 2740.015 624.904 2733.531 C 630.926 2728.339 710.913 2677.763 716.904 2673.531 Q 722.894 2669.299 723.904 2659.531 Q 724.096 2636.097 723.904 2629.531 C 723.647 2620.778 713.553 2612.734 710.904 2611.531 C 708.255 2610.328 698.657 2604.855 687.904 2610.531 Z " fill="url(#_lgradient_1)"/></g><g><linearGradient id="_lgradient_2" x1="0" y1="0.5" x2="1" y2="0.5" gradientTransform="matrix(136.614,0,0,-174.141,745.904,2782.911)" gradientUnits="userSpaceOnUse"><stop offset="0%" stop-opacity="1" style="stop-color:rgb(74,134,232)"/><stop offset="87.91666666666667%" stop-opacity="1" style="stop-color:rgb(9,37,81)"/></linearGradient><path d=" M 782 2610.84 C 793.24 2615.48 859.126 2659.035 867 2665.911 C 874.874 2672.787 880.831 2684.271 882 2694.84 C 883.169 2705.41 881.993 2729.24 882 2738.84 C 882.007 2748.44 877.694 2755.212 873 2762.911 Q 868.306 2770.61 846 2782.911 Q 856.233 2769.426 856 2759.84 C 855.824 2752.6 852.521 2743.324 845 2736.84 C 838.977 2731.648 758.991 2681.073 753 2676.84 Q 747.009 2672.608 746 2659.84 Q 745.807 2636.406 746 2629.84 C 746.257 2621.087 756.351 2613.044 759 2611.84 C 761.649 2610.637 770.76 2606.2 782 2610.84 Z " fill="url(#_lgradient_2)"/><linearGradient id="_lgradient_3" x1="0" y1="0.5" x2="1" y2="0.5" gradientTransform="matrix(136.614,0,0,174.46,746.904,2652.911)" gradientUnits="userSpaceOnUse"><stop offset="72.91666666666666%" stop-opacity="1" style="stop-color:rgb(74,134,232)"/><stop offset="97.5%" stop-opacity="1" style="stop-color:rgb(114,166,251)"/></linearGradient><path d=" M 783 2824.84 C 793.299 2819.404 861.647 2775.65 868 2769.84 C 874.353 2764.031 881.831 2754.41 883 2743.84 C 884.169 2733.271 882.993 2709.44 883 2699.84 C 883.007 2690.24 879.57 2682.613 875 2674.84 Q 869.75 2665.911 849 2652.911 Q 857.233 2669.255 857 2678.84 C 856.824 2686.081 853.521 2695.357 846 2701.84 C 839.977 2707.032 759.991 2757.608 754 2761.84 Q 748.009 2766.073 747 2775.84 Q 746.807 2799.274 747 2805.84 C 747.257 2814.594 757.351 2822.637 760 2823.84 C 762.649 2825.044 772.246 2830.517 783 2824.84 Z " fill="url(#_lgradient_3)"/></g><path d=" M 995.508 2779.896 L 995.508 2779.896 Q 971.91 2779.896 959 2767.84 L 959 2767.84 L 959 2767.84 Q 946.089 2755.785 945.234 2733.555 L 945.234 2733.555 L 945.234 2733.555 Q 945.063 2728.938 945.063 2718.507 L 945.063 2718.507 L 945.063 2718.507 Q 945.063 2707.905 945.234 2703.117 L 945.234 2703.117 L 945.234 2703.117 Q 946.089 2681.229 959.085 2669.002 L 959.085 2669.002 L 959.085 2669.002 Q 972.081 2656.776 995.508 2656.776 L 995.508 2656.776 L 995.508 2656.776 Q 1010.727 2656.776 1022.013 2661.991 L 1022.013 2661.991 L 1022.013 2661.991 Q 1033.299 2667.207 1039.541 2676.27 L 1039.541 2676.27 L 1039.541 2676.27 Q 1045.782 2685.333 1046.124 2696.619 L 1046.124 2696.619 L 1046.124 2696.961 L 1046.124 2696.961 Q 1046.124 2698.329 1045.013 2699.269 L 1045.013 2699.269 L 1045.013 2699.269 Q 1043.901 2700.21 1042.533 2700.21 L 1042.533 2700.21 L 1025.946 2700.21 L 1025.946 2700.21 Q 1023.894 2700.21 1022.868 2699.269 L 1022.868 2699.269 L 1022.868 2699.269 Q 1021.842 2698.329 1021.158 2695.935 L 1021.158 2695.935 L 1021.158 2695.935 Q 1018.593 2685.333 1012.266 2680.972 L 1012.266 2680.972 L 1012.266 2680.972 Q 1005.939 2676.612 995.508 2676.612 L 995.508 2676.612 L 995.508 2676.612 Q 971.055 2676.612 970.029 2703.972 L 970.029 2703.972 L 970.029 2703.972 Q 969.858 2708.589 969.858 2718.165 L 969.858 2718.165 L 969.858 2718.165 Q 969.858 2727.741 970.029 2732.7 L 970.029 2732.7 L 970.029 2732.7 Q 971.055 2760.06 995.508 2760.06 L 995.508 2760.06 L 995.508 2760.06 Q 1005.768 2760.06 1012.181 2755.699 L 1012.181 2755.699 L 1012.181 2755.699 Q 1018.593 2751.339 1021.158 2740.737 L 1021.158 2740.737 L 1021.158 2740.737 Q 1021.842 2738.343 1022.868 2737.402 L 1022.868 2737.402 L 1022.868 2737.402 Q 1023.894 2736.462 1025.946 2736.462 L 1025.946 2736.462 L 1042.533 2736.462 L 1042.533 2736.462 Q 1044.072 2736.462 1045.184 2737.488 L 1045.184 2737.488 L 1045.184 2737.488 Q 1046.295 2738.514 1046.124 2740.053 L 1046.124 2740.053 L 1046.124 2740.053 Q 1045.782 2751.339 1039.541 2760.402 L 1039.541 2760.402 L 1039.541 2760.402 Q 1033.299 2769.465 1022.013 2774.68 L 1022.013 2774.68 L 1022.013 2774.68 Q 1010.727 2779.896 995.508 2779.896 L 995.508 2779.896 L 995.508 2779.896 Z  M 1093.922 2779.896 L 1093.922 2779.896 Q 1073.744 2779.896 1062.8 2769.636 L 1062.8 2769.636 L 1062.8 2769.636 Q 1051.856 2759.376 1051.001 2741.25 L 1051.001 2741.25 L 1050.83 2733.726 L 1051.001 2726.202 L 1051.001 2726.202 Q 1051.856 2708.247 1062.971 2697.901 L 1062.971 2697.901 L 1062.971 2697.901 Q 1074.086 2687.556 1093.922 2687.556 L 1093.922 2687.556 L 1093.922 2687.556 Q 1113.587 2687.556 1124.702 2697.901 L 1124.702 2697.901 L 1124.702 2697.901 Q 1135.817 2708.247 1136.672 2726.202 L 1136.672 2726.202 L 1136.672 2726.202 Q 1136.843 2728.254 1136.843 2733.726 L 1136.843 2733.726 L 1136.843 2733.726 Q 1136.843 2739.198 1136.672 2741.25 L 1136.672 2741.25 L 1136.672 2741.25 Q 1135.817 2759.376 1124.873 2769.636 L 1124.873 2769.636 L 1124.873 2769.636 Q 1113.929 2779.896 1093.922 2779.896 L 1093.922 2779.896 L 1093.922 2779.896 Z  M 1093.922 2762.625 L 1093.922 2762.625 Q 1102.985 2762.625 1107.859 2756.982 L 1107.859 2756.982 L 1107.859 2756.982 Q 1112.732 2751.339 1113.074 2740.395 L 1113.074 2740.395 L 1113.074 2740.395 Q 1113.245 2738.685 1113.245 2733.726 L 1113.245 2733.726 L 1113.245 2733.726 Q 1113.245 2728.767 1113.074 2727.057 L 1113.074 2727.057 L 1113.074 2727.057 Q 1112.732 2716.113 1107.773 2710.384 L 1107.773 2710.384 L 1107.773 2710.384 Q 1102.814 2704.656 1093.922 2704.656 L 1093.922 2704.656 L 1093.922 2704.656 Q 1084.859 2704.656 1079.9 2710.384 L 1079.9 2710.384 L 1079.9 2710.384 Q 1074.941 2716.113 1074.599 2727.057 L 1074.599 2727.057 L 1074.428 2733.726 L 1074.599 2740.395 L 1074.599 2740.395 Q 1074.941 2751.339 1079.9 2756.982 L 1079.9 2756.982 L 1079.9 2756.982 Q 1084.859 2762.625 1093.922 2762.625 L 1093.922 2762.625 L 1093.922 2762.625 Z  M 1178.827 2779.896 L 1178.827 2779.896 Q 1161.556 2779.896 1152.322 2768.866 L 1152.322 2768.866 L 1152.322 2768.866 Q 1143.088 2757.837 1142.233 2739.369 L 1142.233 2739.369 L 1142.062 2733.726 L 1142.233 2728.083 L 1142.233 2728.083 Q 1142.917 2709.957 1152.237 2698.756 L 1152.237 2698.756 L 1152.237 2698.756 Q 1161.556 2687.556 1178.827 2687.556 L 1178.827 2687.556 L 1178.827 2687.556 Q 1195.243 2687.556 1204.99 2698.842 L 1204.99 2698.842 L 1204.99 2660.88 L 1204.99 2660.88 Q 1204.99 2658.999 1206.187 2657.887 L 1206.187 2657.887 L 1206.187 2657.887 Q 1207.384 2656.776 1209.094 2656.776 L 1209.094 2656.776 L 1223.971 2656.776 L 1223.971 2656.776 Q 1225.852 2656.776 1226.964 2657.887 L 1226.964 2657.887 L 1226.964 2657.887 Q 1228.075 2658.999 1228.075 2660.88 L 1228.075 2660.88 L 1228.075 2774.082 L 1228.075 2774.082 Q 1228.075 2775.792 1226.964 2776.989 L 1226.964 2776.989 L 1226.964 2776.989 Q 1225.852 2778.186 1223.971 2778.186 L 1223.971 2778.186 L 1210.12 2778.186 L 1210.12 2778.186 Q 1208.41 2778.186 1207.213 2776.989 L 1207.213 2776.989 L 1207.213 2776.989 Q 1206.016 2775.792 1206.016 2774.082 L 1206.016 2774.082 L 1206.016 2767.755 L 1206.016 2767.755 Q 1196.611 2779.896 1178.827 2779.896 L 1178.827 2779.896 L 1178.827 2779.896 Z  M 1185.325 2761.428 L 1185.325 2761.428 Q 1195.072 2761.428 1199.775 2755.186 L 1199.775 2755.186 L 1199.775 2755.186 Q 1204.477 2748.945 1204.99 2739.711 L 1204.99 2739.711 L 1204.99 2739.711 Q 1205.161 2737.659 1205.161 2733.213 L 1205.161 2733.213 L 1205.161 2733.213 Q 1205.161 2728.596 1204.99 2726.544 L 1204.99 2726.544 L 1204.99 2726.544 Q 1204.648 2717.994 1199.689 2712.009 L 1199.689 2712.009 L 1199.689 2712.009 Q 1194.73 2706.024 1185.325 2706.024 L 1185.325 2706.024 L 1185.325 2706.024 Q 1167.028 2706.024 1165.831 2728.596 L 1165.831 2728.596 L 1165.66 2733.726 L 1165.831 2738.856 L 1165.831 2738.856 Q 1167.028 2761.428 1185.325 2761.428 L 1185.325 2761.428 L 1185.325 2761.428 Z  M 1279.293 2779.896 L 1279.293 2779.896 Q 1260.141 2779.896 1248.941 2768.952 L 1248.941 2768.952 L 1248.941 2768.952 Q 1237.74 2758.008 1237.056 2737.83 L 1237.056 2737.83 L 1236.885 2733.555 L 1236.885 2733.555 Q 1236.885 2712.18 1248.086 2699.868 L 1248.086 2699.868 L 1248.086 2699.868 Q 1259.286 2687.556 1279.122 2687.556 L 1279.122 2687.556 L 1279.122 2687.556 Q 1299.471 2687.556 1310.501 2699.868 L 1310.501 2699.868 L 1310.501 2699.868 Q 1321.53 2712.18 1321.53 2732.7 L 1321.53 2732.7 L 1321.53 2736.291 L 1321.53 2736.291 Q 1321.53 2738.001 1320.333 2739.198 L 1320.333 2739.198 L 1320.333 2739.198 Q 1319.136 2740.395 1317.255 2740.395 L 1317.255 2740.395 L 1260.483 2740.395 L 1260.483 2741.763 L 1260.483 2741.763 Q 1260.825 2751.339 1265.699 2757.58 L 1265.699 2757.58 L 1265.699 2757.58 Q 1270.572 2763.822 1279.122 2763.822 L 1279.122 2763.822 L 1279.122 2763.822 Q 1288.869 2763.822 1295.025 2755.956 L 1295.025 2755.956 L 1295.025 2755.956 Q 1296.564 2754.075 1297.419 2753.647 L 1297.419 2753.647 L 1297.419 2753.647 Q 1298.274 2753.22 1300.326 2753.22 L 1300.326 2753.22 L 1315.374 2753.22 L 1315.374 2753.22 Q 1316.913 2753.22 1318.025 2754.075 L 1318.025 2754.075 L 1318.025 2754.075 Q 1319.136 2754.93 1319.136 2756.469 L 1319.136 2756.469 L 1319.136 2756.469 Q 1319.136 2760.573 1314.263 2766.13 L 1314.263 2766.13 L 1314.263 2766.13 Q 1309.389 2771.688 1300.326 2775.792 L 1300.326 2775.792 L 1300.326 2775.792 Q 1291.263 2779.896 1279.293 2779.896 L 1279.293 2779.896 L 1279.293 2779.896 Z  M 1260.483 2725.86 L 1297.932 2725.86 L 1297.932 2725.518 L 1297.932 2725.518 Q 1297.932 2715.429 1292.888 2709.358 L 1292.888 2709.358 L 1292.888 2709.358 Q 1287.843 2703.288 1279.122 2703.288 L 1279.122 2703.288 L 1279.122 2703.288 Q 1270.401 2703.288 1265.442 2709.358 L 1265.442 2709.358 L 1265.442 2709.358 Q 1260.483 2715.429 1260.483 2725.518 L 1260.483 2725.518 L 1260.483 2725.86 L 1260.483 2725.86 Z  M 1346.243 2778.186 L 1346.243 2778.186 Q 1344.533 2778.186 1343.336 2776.989 L 1343.336 2776.989 L 1343.336 2776.989 Q 1342.139 2775.792 1342.139 2774.082 L 1342.139 2774.082 L 1342.139 2679.861 L 1310.504 2679.861 L 1310.504 2679.861 Q 1308.794 2679.861 1307.597 2678.664 L 1307.597 2678.664 L 1307.597 2678.664 Q 1306.4 2677.467 1306.4 2675.586 L 1306.4 2675.586 L 1306.4 2662.761 L 1306.4 2662.761 Q 1306.4 2660.88 1307.512 2659.683 L 1307.512 2659.683 L 1307.512 2659.683 Q 1308.623 2658.486 1310.504 2658.486 L 1310.504 2658.486 L 1397.885 2658.486 L 1397.885 2658.486 Q 1399.766 2658.486 1400.963 2659.683 L 1400.963 2659.683 L 1400.963 2659.683 Q 1402.16 2660.88 1402.16 2662.761 L 1402.16 2662.761 L 1402.16 2675.586 L 1402.16 2675.586 Q 1402.16 2677.467 1400.963 2678.664 L 1400.963 2678.664 L 1400.963 2678.664 Q 1399.766 2679.861 1397.885 2679.861 L 1397.885 2679.861 L 1366.421 2679.861 L 1366.421 2774.082 L 1366.421 2774.082 Q 1366.421 2775.792 1365.31 2776.989 L 1365.31 2776.989 L 1365.31 2776.989 Q 1364.198 2778.186 1362.317 2778.186 L 1362.317 2778.186 L 1346.243 2778.186 L 1346.243 2778.186 Z  M 1430.122 2779.896 L 1430.122 2779.896 Q 1410.97 2779.896 1399.77 2768.952 L 1399.77 2768.952 L 1399.77 2768.952 Q 1388.569 2758.008 1387.885 2737.83 L 1387.885 2737.83 L 1387.714 2733.555 L 1387.714 2733.555 Q 1387.714 2712.18 1398.915 2699.868 L 1398.915 2699.868 L 1398.915 2699.868 Q 1410.115 2687.556 1429.951 2687.556 L 1429.951 2687.556 L 1429.951 2687.556 Q 1450.3 2687.556 1461.33 2699.868 L 1461.33 2699.868 L 1461.33 2699.868 Q 1472.359 2712.18 1472.359 2732.7 L 1472.359 2732.7 L 1472.359 2736.291 L 1472.359 2736.291 Q 1472.359 2738.001 1471.162 2739.198 L 1471.162 2739.198 L 1471.162 2739.198 Q 1469.965 2740.395 1468.084 2740.395 L 1468.084 2740.395 L 1411.312 2740.395 L 1411.312 2741.763 L 1411.312 2741.763 Q 1411.654 2751.339 1416.528 2757.58 L 1416.528 2757.58 L 1416.528 2757.58 Q 1421.401 2763.822 1429.951 2763.822 L 1429.951 2763.822 L 1429.951 2763.822 Q 1439.698 2763.822 1445.854 2755.956 L 1445.854 2755.956 L 1445.854 2755.956 Q 1447.393 2754.075 1448.248 2753.647 L 1448.248 2753.647 L 1448.248 2753.647 Q 1449.103 2753.22 1451.155 2753.22 L 1451.155 2753.22 L 1466.203 2753.22 L 1466.203 2753.22 Q 1467.742 2753.22 1468.854 2754.075 L 1468.854 2754.075 L 1468.854 2754.075 Q 1469.965 2754.93 1469.965 2756.469 L 1469.965 2756.469 L 1469.965 2756.469 Q 1469.965 2760.573 1465.092 2766.13 L 1465.092 2766.13 L 1465.092 2766.13 Q 1460.218 2771.688 1451.155 2775.792 L 1451.155 2775.792 L 1451.155 2775.792 Q 1442.092 2779.896 1430.122 2779.896 L 1430.122 2779.896 L 1430.122 2779.896 Z  M 1411.312 2725.86 L 1448.761 2725.86 L 1448.761 2725.518 L 1448.761 2725.518 Q 1448.761 2715.429 1443.717 2709.358 L 1443.717 2709.358 L 1443.717 2709.358 Q 1438.672 2703.288 1429.951 2703.288 L 1429.951 2703.288 L 1429.951 2703.288 Q 1421.23 2703.288 1416.271 2709.358 L 1416.271 2709.358 L 1416.271 2709.358 Q 1411.312 2715.429 1411.312 2725.518 L 1411.312 2725.518 L 1411.312 2725.86 L 1411.312 2725.86 Z  M 1514.343 2779.896 L 1514.343 2779.896 Q 1501.347 2779.896 1492.626 2775.963 L 1492.626 2775.963 L 1492.626 2775.963 Q 1483.905 2772.03 1479.716 2766.814 L 1479.716 2766.814 L 1479.716 2766.814 Q 1475.526 2761.599 1475.526 2757.837 L 1475.526 2757.837 L 1475.526 2757.837 Q 1475.526 2756.127 1476.638 2755.101 L 1476.638 2755.101 L 1476.638 2755.101 Q 1477.749 2754.075 1479.288 2754.075 L 1479.288 2754.075 L 1493.31 2754.075 L 1493.31 2754.075 Q 1494.678 2754.075 1495.704 2755.443 L 1495.704 2755.443 L 1495.704 2755.443 Q 1496.559 2756.127 1499.552 2758.692 L 1499.552 2758.692 L 1499.552 2758.692 Q 1502.544 2761.257 1506.392 2762.71 L 1506.392 2762.71 L 1506.392 2762.71 Q 1510.239 2764.164 1514.856 2764.164 L 1514.856 2764.164 L 1514.856 2764.164 Q 1521.696 2764.164 1525.971 2761.513 L 1525.971 2761.513 L 1525.971 2761.513 Q 1530.246 2758.863 1530.246 2753.904 L 1530.246 2753.904 L 1530.246 2753.904 Q 1530.246 2750.484 1528.28 2748.346 L 1528.28 2748.346 L 1528.28 2748.346 Q 1526.313 2746.209 1521.269 2744.413 L 1521.269 2744.413 L 1521.269 2744.413 Q 1516.224 2742.618 1506.135 2740.395 L 1506.135 2740.395 L 1506.135 2740.395 Q 1491.6 2737.317 1484.675 2730.99 L 1484.675 2730.99 L 1484.675 2730.99 Q 1477.749 2724.663 1477.749 2714.232 L 1477.749 2714.232 L 1477.749 2714.232 Q 1477.749 2707.392 1481.853 2701.321 L 1481.853 2701.321 L 1481.853 2701.321 Q 1485.957 2695.251 1494.08 2691.403 L 1494.08 2691.403 L 1494.08 2691.403 Q 1502.202 2687.556 1513.488 2687.556 L 1513.488 2687.556 L 1513.488 2687.556 Q 1525.116 2687.556 1533.495 2691.232 L 1533.495 2691.232 L 1533.495 2691.232 Q 1541.874 2694.909 1546.235 2700.039 L 1546.235 2700.039 L 1546.235 2700.039 Q 1550.595 2705.169 1550.595 2709.102 L 1550.595 2709.102 L 1550.595 2709.102 Q 1550.595 2710.641 1549.484 2711.752 L 1549.484 2711.752 L 1549.484 2711.752 Q 1548.372 2712.864 1546.833 2712.864 L 1546.833 2712.864 L 1534.008 2712.864 L 1534.008 2712.864 Q 1532.127 2712.864 1531.101 2711.496 L 1531.101 2711.496 L 1531.101 2711.496 Q 1529.904 2710.641 1527.254 2708.332 L 1527.254 2708.332 L 1527.254 2708.332 Q 1524.603 2706.024 1521.354 2704.656 L 1521.354 2704.656 L 1521.354 2704.656 Q 1518.105 2703.288 1513.488 2703.288 L 1513.488 2703.288 L 1513.488 2703.288 Q 1507.161 2703.288 1503.741 2706.024 L 1503.741 2706.024 L 1503.741 2706.024 Q 1500.321 2708.76 1500.321 2713.206 L 1500.321 2713.206 L 1500.321 2713.206 Q 1500.321 2716.284 1501.946 2718.336 L 1501.946 2718.336 L 1501.946 2718.336 Q 1503.57 2720.388 1508.529 2722.183 L 1508.529 2722.183 L 1508.529 2722.183 Q 1513.488 2723.979 1523.406 2725.86 L 1523.406 2725.86 L 1523.406 2725.86 Q 1554.186 2731.845 1554.186 2752.707 L 1554.186 2752.707 L 1554.186 2752.707 Q 1554.186 2764.848 1543.67 2772.372 L 1543.67 2772.372 L 1543.67 2772.372 Q 1533.153 2779.896 1514.343 2779.896 L 1514.343 2779.896 L 1514.343 2779.896 Z  M 1601.642 2778.186 L 1601.642 2778.186 Q 1586.081 2778.186 1578.215 2770.063 L 1578.215 2770.063 L 1578.215 2770.063 Q 1570.349 2761.941 1570.349 2746.209 L 1570.349 2746.209 L 1570.349 2707.563 L 1556.84 2707.563 L 1556.84 2707.563 Q 1555.13 2707.563 1553.933 2706.366 L 1553.933 2706.366 L 1553.933 2706.366 Q 1552.736 2705.169 1552.736 2703.459 L 1552.736 2703.459 L 1552.736 2693.37 L 1552.736 2693.37 Q 1552.736 2691.66 1553.933 2690.463 L 1553.933 2690.463 L 1553.933 2690.463 Q 1555.13 2689.266 1556.84 2689.266 L 1556.84 2689.266 L 1570.349 2689.266 L 1570.349 2660.88 L 1570.349 2660.88 Q 1570.349 2658.999 1571.546 2657.887 L 1571.546 2657.887 L 1571.546 2657.887 Q 1572.743 2656.776 1574.453 2656.776 L 1574.453 2656.776 L 1588.646 2656.776 L 1588.646 2656.776 Q 1590.527 2656.776 1591.639 2657.887 L 1591.639 2657.887 L 1591.639 2657.887 Q 1592.75 2658.999 1592.75 2660.88 L 1592.75 2660.88 L 1592.75 2689.266 L 1614.125 2689.266 L 1614.125 2689.266 Q 1615.835 2689.266 1617.032 2690.463 L 1617.032 2690.463 L 1617.032 2690.463 Q 1618.229 2691.66 1618.229 2693.37 L 1618.229 2693.37 L 1618.229 2703.459 L 1618.229 2703.459 Q 1618.229 2705.169 1617.032 2706.366 L 1617.032 2706.366 L 1617.032 2706.366 Q 1615.835 2707.563 1614.125 2707.563 L 1614.125 2707.563 L 1592.75 2707.563 L 1592.75 2744.328 L 1592.75 2744.328 Q 1592.75 2751.681 1595.315 2755.443 L 1595.315 2755.443 L 1595.315 2755.443 Q 1597.88 2759.205 1603.694 2759.205 L 1603.694 2759.205 L 1615.664 2759.205 L 1615.664 2759.205 Q 1617.545 2759.205 1618.657 2760.316 L 1618.657 2760.316 L 1618.657 2760.316 Q 1619.768 2761.428 1619.768 2763.309 L 1619.768 2763.309 L 1619.768 2774.082 L 1619.768 2774.082 Q 1619.768 2775.792 1618.657 2776.989 L 1618.657 2776.989 L 1618.657 2776.989 Q 1617.545 2778.186 1615.664 2778.186 L 1615.664 2778.186 L 1601.642 2778.186 L 1601.642 2778.186 Z  M 1663.462 2779.896 L 1663.462 2779.896 Q 1644.31 2779.896 1633.11 2768.952 L 1633.11 2768.952 L 1633.11 2768.952 Q 1621.909 2758.008 1621.225 2737.83 L 1621.225 2737.83 L 1621.054 2733.555 L 1621.054 2733.555 Q 1621.054 2712.18 1632.255 2699.868 L 1632.255 2699.868 L 1632.255 2699.868 Q 1643.455 2687.556 1663.291 2687.556 L 1663.291 2687.556 L 1663.291 2687.556 Q 1683.64 2687.556 1694.67 2699.868 L 1694.67 2699.868 L 1694.67 2699.868 Q 1705.699 2712.18 1705.699 2732.7 L 1705.699 2732.7 L 1705.699 2736.291 L 1705.699 2736.291 Q 1705.699 2738.001 1704.502 2739.198 L 1704.502 2739.198 L 1704.502 2739.198 Q 1703.305 2740.395 1701.424 2740.395 L 1701.424 2740.395 L 1644.652 2740.395 L 1644.652 2741.763 L 1644.652 2741.763 Q 1644.994 2751.339 1649.868 2757.58 L 1649.868 2757.58 L 1649.868 2757.58 Q 1654.741 2763.822 1663.291 2763.822 L 1663.291 2763.822 L 1663.291 2763.822 Q 1673.038 2763.822 1679.194 2755.956 L 1679.194 2755.956 L 1679.194 2755.956 Q 1680.733 2754.075 1681.588 2753.647 L 1681.588 2753.647 L 1681.588 2753.647 Q 1682.443 2753.22 1684.495 2753.22 L 1684.495 2753.22 L 1699.543 2753.22 L 1699.543 2753.22 Q 1701.082 2753.22 1702.194 2754.075 L 1702.194 2754.075 L 1702.194 2754.075 Q 1703.305 2754.93 1703.305 2756.469 L 1703.305 2756.469 L 1703.305 2756.469 Q 1703.305 2760.573 1698.432 2766.13 L 1698.432 2766.13 L 1698.432 2766.13 Q 1693.558 2771.688 1684.495 2775.792 L 1684.495 2775.792 L 1684.495 2775.792 Q 1675.432 2779.896 1663.462 2779.896 L 1663.462 2779.896 L 1663.462 2779.896 Z  M 1644.652 2725.86 L 1682.101 2725.86 L 1682.101 2725.518 L 1682.101 2725.518 Q 1682.101 2715.429 1677.057 2709.358 L 1677.057 2709.358 L 1677.057 2709.358 Q 1672.012 2703.288 1663.291 2703.288 L 1663.291 2703.288 L 1663.291 2703.288 Q 1654.57 2703.288 1649.611 2709.358 L 1649.611 2709.358 L 1649.611 2709.358 Q 1644.652 2715.429 1644.652 2725.518 L 1644.652 2725.518 L 1644.652 2725.86 L 1644.652 2725.86 Z  M 1717.929 2778.186 L 1717.929 2778.186 Q 1716.219 2778.186 1715.022 2776.989 L 1715.022 2776.989 L 1715.022 2776.989 Q 1713.825 2775.792 1713.825 2774.082 L 1713.825 2774.082 L 1713.825 2693.541 L 1713.825 2693.541 Q 1713.825 2691.66 1715.022 2690.463 L 1715.022 2690.463 L 1715.022 2690.463 Q 1716.219 2689.266 1717.929 2689.266 L 1717.929 2689.266 L 1731.951 2689.266 L 1731.951 2689.266 Q 1733.832 2689.266 1735.029 2690.463 L 1735.029 2690.463 L 1735.029 2690.463 Q 1736.226 2691.66 1736.226 2693.541 L 1736.226 2693.541 L 1736.226 2700.552 L 1736.226 2700.552 Q 1744.776 2689.266 1760.85 2689.266 L 1760.85 2689.266 L 1768.032 2689.266 L 1768.032 2689.266 Q 1769.913 2689.266 1771.025 2690.377 L 1771.025 2690.377 L 1771.025 2690.377 Q 1772.136 2691.489 1772.136 2693.37 L 1772.136 2693.37 L 1772.136 2705.853 L 1772.136 2705.853 Q 1772.136 2707.563 1771.025 2708.76 L 1771.025 2708.76 L 1771.025 2708.76 Q 1769.913 2709.957 1768.032 2709.957 L 1768.032 2709.957 L 1754.523 2709.957 L 1754.523 2709.957 Q 1746.486 2709.957 1741.869 2714.574 L 1741.869 2714.574 L 1741.869 2714.574 Q 1737.252 2719.191 1737.252 2727.228 L 1737.252 2727.228 L 1737.252 2774.082 L 1737.252 2774.082 Q 1737.252 2775.792 1736.055 2776.989 L 1736.055 2776.989 L 1736.055 2776.989 Q 1734.858 2778.186 1733.148 2778.186 L 1733.148 2778.186 L 1717.929 2778.186 L 1717.929 2778.186 Z " fill="rgb(64,120,210)"/></g></svg>